<svg xmlns="http://www.w3.org/2000/svg" enable-background="new 0 0 2500 2500" viewBox="0 0 2500 2500"><path fill="#fff" d="M1992.92,577.96v1388.93c0,58.27-47.24,105.51-105.51,105.51H1150.7c-58.27,0-105.51-47.24-105.51-105.51
				V577.96c0-58.27,47.24-105.51,105.51-105.51h736.71C1945.68,472.45,1992.92,519.69,1992.92,577.96z"/><path d="M1887.41,2075.31H1150.7c-59.79,0-108.43-48.64-108.43-108.43V577.96c0-59.79,48.64-108.43,108.43-108.43h736.71
				c59.79,0,108.43,48.64,108.43,108.43v1388.93C1995.84,2026.67,1947.2,2075.31,1887.41,2075.31z M1150.7,475.37
				c-56.57,0-102.58,46.02-102.58,102.58v1388.93c0,56.57,46.02,102.58,102.58,102.58h736.71c56.57,0,102.58-46.02,102.58-102.58
				V577.96c0-56.57-46.02-102.58-102.58-102.58H1150.7z"/><path fill="#737ff6" d="M1675.17,472.45v30.3c0,7.84-6.36,14.2-14.2,14.2h-283.83c-7.84,0-14.2-6.36-14.2-14.2v-30.3H1675.17z"/><path d="M1660.97,519.87h-283.83c-9.44,0-17.12-7.68-17.12-17.12v-30.3c0-1.61,1.31-2.92,2.92-2.92h312.22
			c1.61,0,2.92,1.31,2.92,2.92v30.3C1678.09,512.19,1670.41,519.87,1660.97,519.87z M1365.87,475.37v27.38
			c0,6.22,5.06,11.28,11.27,11.28h283.83c6.21,0,11.27-5.06,11.27-11.28v-27.38H1365.87z"/><path fill="#fff" d="M1836.31,1027.45c0,175.19-142.04,317.23-317.23,317.23c-175.22,0-317.27-142.04-317.27-317.23
				c0-175.22,142.04-317.27,317.27-317.27C1694.27,710.19,1836.31,852.23,1836.31,1027.45z"/><path d="M1519.08,1347.6c-176.55,0-320.19-143.62-320.19-320.15c0-176.55,143.64-320.19,320.19-320.19
				c176.53,0,320.15,143.64,320.15,320.19C1839.23,1203.99,1695.61,1347.6,1519.08,1347.6z M1519.08,713.11
				c-173.33,0-314.34,141.01-314.34,314.35c0,173.31,141.02,314.31,314.34,314.31c173.31,0,314.31-141,314.31-314.31
				C1833.39,854.12,1692.39,713.11,1519.08,713.11z"/><path d="M1138.81,581.79c-0.75,0-1.49-0.29-2.07-0.86l-21.33-21.31c-0.55-0.55-0.86-1.29-0.86-2.07c0-0.77,0.31-1.52,0.86-2.07
			l21.33-21.33c1.14-1.14,2.99-1.14,4.13,0c1.14,1.14,1.14,2.99,0,4.13l-19.26,19.26l19.26,19.24c1.14,1.14,1.14,2.99,0,4.13
			C1140.31,581.5,1139.56,581.79,1138.81,581.79z"/><path d="M1193.4,560.47h-75.91c-1.61,0-2.92-1.31-2.92-2.92s1.31-2.92,2.92-2.92h75.91c1.61,0,2.92,1.31,2.92,2.92
			S1195.01,560.47,1193.4,560.47z"/><path d="M1884.36,596.73c-21.61,0-39.19-17.58-39.19-39.19c0-21.61,17.58-39.19,39.19-39.19s39.19,17.58,39.19,39.19
			C1923.55,579.15,1905.97,596.73,1884.36,596.73z M1884.36,524.2c-18.39,0-33.35,14.96-33.35,33.35
			c0,18.39,14.96,33.35,33.35,33.35s33.35-14.96,33.35-33.35C1917.71,539.16,1902.75,524.2,1884.36,524.2z"/><path d="M1894.87,570.97c-0.75,0-1.49-0.29-2.07-0.86l-21.01-21.02c-1.14-1.14-1.14-2.99,0-4.13c1.14-1.14,2.99-1.14,4.13,0
			l21.01,21.02c1.14,1.14,1.14,2.99,0,4.13C1896.37,570.69,1895.62,570.97,1894.87,570.97z"/><path d="M1873.86,570.97c-0.75,0-1.49-0.29-2.07-0.86c-1.14-1.14-1.14-2.99,0-4.13l21.01-21.02c1.14-1.14,2.99-1.14,4.13,0
			c1.14,1.14,1.14,2.99,0,4.13l-21.01,21.02C1875.35,570.69,1874.61,570.97,1873.86,570.97z"/><path fill="#fff" d="M1706.66,979.39c-4.36,0-8.72-1.66-12.04-4.99c-96.81-96.81-254.32-96.81-351.13,0
			c-6.64,6.65-17.44,6.65-24.08,0c-6.65-6.65-6.65-17.43,0-24.08c110.08-110.09,289.21-110.09,399.29,0
			c6.65,6.65,6.65,17.43,0,24.08C1715.38,977.73,1711.02,979.39,1706.66,979.39z"/><path d="M1706.66,982.31c-5.33,0-10.34-2.07-14.11-5.84c-46.27-46.27-107.88-71.75-173.5-71.75s-127.23,25.48-173.5,71.75
			c-3.77,3.77-8.77,5.84-14.1,5.84c-5.33,0-10.34-2.08-14.11-5.84c-3.77-3.77-5.85-8.78-5.85-14.11c0-5.33,2.08-10.34,5.85-14.11
			c53.79-53.79,125.42-83.42,201.71-83.42c76.28,0,147.92,29.63,201.71,83.42c3.77,3.77,5.85,8.78,5.85,14.11
			c0,5.33-2.08,10.34-5.85,14.11C1717.01,980.24,1712,982.31,1706.66,982.31z M1519.06,898.88c67.17,0,130.26,26.09,177.63,73.46
			c5.32,5.33,14.63,5.33,19.95,0c2.67-2.67,4.14-6.21,4.14-9.98c0-3.77-1.47-7.31-4.13-9.98c-52.69-52.69-122.85-81.71-197.58-81.71
			c-74.73,0-144.89,29.02-197.58,81.71c-2.67,2.66-4.13,6.21-4.13,9.98c0,3.77,1.47,7.31,4.13,9.97c5.32,5.33,14.62,5.33,19.95,0
			C1388.8,924.97,1451.88,898.88,1519.06,898.88z"/><path fill="#fff" d="M1660.54,1025.52c-4.36,0-8.72-1.66-12.04-4.99c-34.51-34.51-80.48-53.52-129.44-53.52
			c-48.95,0-94.92,19.01-129.44,53.52c-6.64,6.65-17.43,6.65-24.08,0c-6.65-6.65-6.65-17.43,0-24.08
			c40.94-40.95,95.47-63.5,153.52-63.5c58.05,0,112.57,22.55,153.52,63.5c6.65,6.65,6.65,17.43,0,24.08
			C1669.26,1023.85,1664.89,1025.52,1660.54,1025.52z"/><path d="M1377.58,1028.44c-5.33,0-10.34-2.07-14.11-5.84c-3.77-3.77-5.85-8.78-5.85-14.11s2.08-10.34,5.85-14.11
			c41.5-41.5,96.75-64.35,155.59-64.35c58.83,0,114.09,22.85,155.58,64.35c3.77,3.77,5.85,8.78,5.85,14.11s-2.08,10.34-5.85,14.11
			c-3.76,3.77-8.77,5.84-14.1,5.84s-10.35-2.07-14.11-5.84c-33.96-33.96-79.2-52.67-127.37-52.67c-48.18,0-93.41,18.7-127.38,52.67
			C1387.92,1026.36,1382.91,1028.44,1377.58,1028.44z M1519.06,935.87c-57.28,0-111.06,22.25-151.46,62.64
			c-2.67,2.66-4.13,6.21-4.13,9.98s1.47,7.31,4.13,9.98c5.33,5.33,14.62,5.33,19.95,0c35.07-35.07,81.77-54.38,131.51-54.38
			s96.44,19.31,131.5,54.38c5.32,5.33,14.62,5.33,19.95,0c2.67-2.67,4.13-6.21,4.13-9.98s-1.47-7.31-4.13-9.98
			C1630.12,958.11,1576.33,935.87,1519.06,935.87z"/><path fill="#fff" d="M1423.7,1071.64c-4.36,0-8.72-1.66-12.04-4.99c-6.65-6.65-6.65-17.43,0-24.08
			c28.64-28.64,66.79-44.42,107.4-44.42c0,0,0,0,0,0c40.61,0,78.75,15.78,107.4,44.42c6.65,6.65,6.65,17.43,0,24.08
			c-6.64,6.65-17.44,6.65-24.08,0c-22.21-22.21-51.8-34.45-83.32-34.45c-31.51,0-61.1,12.23-83.32,34.45
			C1432.42,1069.98,1428.06,1071.64,1423.7,1071.64z"/><path d="M1423.7,1074.56c-5.33,0-10.34-2.07-14.11-5.84c-3.77-3.77-5.85-8.78-5.85-14.11s2.08-10.34,5.85-14.11
			c29.2-29.2,68.07-45.28,109.46-45.28s80.27,16.08,109.46,45.28c3.77,3.77,5.85,8.78,5.85,14.11s-2.08,10.34-5.85,14.11
			c-3.77,3.77-8.77,5.84-14.1,5.84c-5.33,0-10.34-2.08-14.11-5.84c-21.66-21.66-50.52-33.59-81.25-33.59
			c-30.73,0-59.59,11.93-81.25,33.59C1434.04,1072.48,1429.04,1074.56,1423.7,1074.56z M1519.06,1001.07
			c-39.83,0-77.24,15.47-105.33,43.57c-2.67,2.66-4.13,6.21-4.13,9.98s1.47,7.31,4.13,9.98c5.32,5.33,14.63,5.33,19.95,0
			c22.77-22.77,53.1-35.3,85.39-35.3s62.61,12.54,85.38,35.3c5.32,5.33,14.62,5.33,19.95,0c2.67-2.66,4.13-6.21,4.13-9.98
			s-1.47-7.31-4.13-9.98C1596.3,1016.54,1558.89,1001.07,1519.06,1001.07z"/><path fill="#737ff6" d="M1559.79,1163.72c-5.61,5.61-12.13,9.82-19.06,12.64c-6.93,2.79-14.31,4.21-21.68,4.21
			c-14.75,0-29.5-5.61-40.74-16.85c-22.46-22.46-22.46-58.99,0-81.45c22.46-22.46,59.03-22.46,81.49,0
			C1582.26,1104.73,1582.26,1141.26,1559.79,1163.72z"/><path d="M1519.05,1183.5c-16.18,0-31.39-6.29-42.81-17.71c-23.59-23.6-23.59-61.99,0-85.58c23.6-23.6,62.01-23.61,85.62,0
			c23.59,23.59,23.59,61.99,0,85.58c-5.74,5.74-12.48,10.21-20.03,13.28C1534.52,1182.01,1526.86,1183.5,1519.05,1183.5z
			 M1519.05,1068.34c-14.01,0-28.02,5.33-38.68,15.99c-21.31,21.32-21.31,56,0,77.32c10.32,10.32,24.06,16,38.68,16
			c7.06,0,13.98-1.35,20.58-4c6.82-2.77,12.91-6.81,18.09-12l0,0c21.31-21.32,21.31-56,0-77.32
			C1547.07,1073.67,1533.06,1068.34,1519.05,1068.34z"/><path fill="#f34b85" d="M1740.16,883.07c0,26.55-21.54,48.05-48.05,48.05c-26.55,0-48.06-21.5-48.06-48.05
				c0-26.55,21.5-48.05,48.06-48.05C1718.61,835.02,1740.16,856.52,1740.16,883.07z"/><path d="M1692.1,934.05c-28.11,0-50.97-22.87-50.97-50.98s22.87-50.97,50.97-50.97s50.97,22.87,50.97,50.97
				S1720.21,934.05,1692.1,934.05z M1692.1,837.94c-24.89,0-45.13,20.25-45.13,45.13s20.25,45.13,45.13,45.13
				s45.13-20.25,45.13-45.13S1716.99,837.94,1692.1,837.94z"/><path d="M1706.67,900.56c-0.75,0-1.49-0.29-2.07-0.86l-29.13-29.13c-1.14-1.14-1.14-2.99,0-4.13c1.14-1.14,2.99-1.14,4.13,0
			l29.13,29.13c1.14,1.14,1.14,2.99,0,4.13C1708.16,900.28,1707.42,900.56,1706.67,900.56z"/><path d="M1677.53,900.56c-0.75,0-1.49-0.29-2.07-0.86c-1.14-1.14-1.14-2.99,0-4.13l29.13-29.13c1.14-1.14,2.99-1.14,4.13,0
			c1.14,1.14,1.14,2.99,0,4.13l-29.13,29.13C1679.03,900.28,1678.28,900.56,1677.53,900.56z"/><path d="M1438.67,1527.87h-254.98c-9.56,0-17.33-7.77-17.33-17.33c0-9.56,7.77-17.33,17.33-17.33h254.98
			c9.55,0,17.33,7.77,17.33,17.33C1455.99,1520.09,1448.22,1527.87,1438.67,1527.87z M1183.68,1499.05
			c-6.34,0-11.49,5.15-11.49,11.49s5.15,11.49,11.49,11.49h254.98c6.33,0,11.49-5.15,11.49-11.49s-5.15-11.49-11.49-11.49H1183.68z"/><path d="M1836.92,1558.8h-153.1c-26.61,0-48.26-21.65-48.26-48.26s21.65-48.26,48.26-48.26h153.1c26.61,0,48.26,21.65,48.26,48.26
			S1863.54,1558.8,1836.92,1558.8z M1683.82,1468.11c-23.39,0-42.42,19.03-42.42,42.42c0,23.39,19.03,42.42,42.42,42.42h153.1
			c23.39,0,42.42-19.03,42.42-42.42c0-23.39-19.03-42.42-42.42-42.42H1683.82z"/><path fill="#fda500" d="M1712.56,1510.53c0,14.79-12,26.79-26.79,26.79c-14.79,0-26.79-12-26.79-26.79c0-14.79,12-26.79,26.79-26.79
				C1700.56,1483.74,1712.56,1495.74,1712.56,1510.53z"/><path d="M1685.76,1540.25c-16.39,0-29.71-13.33-29.71-29.71s13.33-29.71,29.71-29.71s29.72,13.33,29.72,29.71
				S1702.15,1540.25,1685.76,1540.25z M1685.76,1486.66c-13.16,0-23.87,10.71-23.87,23.87s10.71,23.87,23.87,23.87
				s23.87-10.71,23.87-23.87S1698.93,1486.66,1685.76,1486.66z"/><path d="M1836.92,1711.43h-153.1c-26.61,0-48.26-21.65-48.26-48.26c0-26.61,21.65-48.26,48.26-48.26h153.1
			c26.61,0,48.26,21.65,48.26,48.26C1885.19,1689.78,1863.54,1711.43,1836.92,1711.43z M1683.82,1620.75
			c-23.39,0-42.42,19.03-42.42,42.42c0,23.39,19.03,42.42,42.42,42.42h153.1c23.39,0,42.42-19.03,42.42-42.42
			c0-23.39-19.03-42.42-42.42-42.42H1683.82z"/><path fill="#fda500" d="M1712.56,1663.17c0,14.79-12,26.79-26.79,26.79c-14.79,0-26.79-12-26.79-26.79c0-14.79,12-26.79,26.79-26.79
				C1700.56,1636.37,1712.56,1648.37,1712.56,1663.17z"/><path d="M1685.76,1692.88c-16.39,0-29.71-13.33-29.71-29.71c0-16.39,13.33-29.71,29.71-29.71s29.72,13.33,29.72,29.71
				C1715.48,1679.55,1702.15,1692.88,1685.76,1692.88z M1685.76,1639.29c-13.16,0-23.87,10.71-23.87,23.87
				c0,13.16,10.71,23.87,23.87,23.87s23.87-10.71,23.87-23.87C1709.64,1650,1698.93,1639.29,1685.76,1639.29z"/><path d="M1836.92,1864.06h-153.1c-26.61,0-48.26-21.65-48.26-48.26s21.65-48.26,48.26-48.26h153.1
			c26.61,0,48.26,21.65,48.26,48.26S1863.54,1864.06,1836.92,1864.06z M1683.82,1773.38c-23.39,0-42.42,19.03-42.42,42.42
			c0,23.39,19.03,42.42,42.42,42.42h153.1c23.39,0,42.42-19.03,42.42-42.42c0-23.39-19.03-42.42-42.42-42.42H1683.82z"/><path fill="#fda500" d="M1712.56,1815.8c0,14.79-12,26.79-26.79,26.79c-14.79,0-26.79-12-26.79-26.79c0-14.79,12-26.79,26.79-26.79
				C1700.56,1789,1712.56,1801,1712.56,1815.8z"/><path d="M1685.76,1845.51c-16.39,0-29.71-13.33-29.71-29.71s13.33-29.71,29.71-29.71s29.72,13.33,29.72,29.71
				S1702.15,1845.51,1685.76,1845.51z M1685.76,1791.92c-13.16,0-23.87,10.71-23.87,23.87s10.71,23.87,23.87,23.87
				s23.87-10.71,23.87-23.87S1698.93,1791.92,1685.76,1791.92z"/><path d="M1438.67,1680.5h-254.98c-9.56,0-17.33-7.77-17.33-17.33c0-9.56,7.77-17.33,17.33-17.33h254.98
			c9.55,0,17.33,7.77,17.33,17.33C1455.99,1672.72,1448.22,1680.5,1438.67,1680.5z M1183.68,1651.68c-6.34,0-11.49,5.15-11.49,11.49
			c0,6.33,5.15,11.49,11.49,11.49h254.98c6.33,0,11.49-5.15,11.49-11.49c0-6.33-5.15-11.49-11.49-11.49H1183.68z"/><path d="M1438.67,1833.13h-254.98c-9.56,0-17.33-7.77-17.33-17.33c0-9.56,7.77-17.33,17.33-17.33h254.98
			c9.55,0,17.33,7.77,17.33,17.33C1455.99,1825.35,1448.22,1833.13,1438.67,1833.13z M1183.68,1804.31
			c-6.34,0-11.49,5.15-11.49,11.49s5.15,11.49,11.49,11.49h254.98c6.33,0,11.49-5.15,11.49-11.49s-5.15-11.49-11.49-11.49H1183.68z"/><path fill="#737ff6" d="M1543.99,1985.99c0,24.03-19.49,43.48-43.52,43.48c-24.03,0-43.48-19.45-43.48-43.48
			c0-24.03,19.45-43.52,43.48-43.52C1524.5,1942.47,1543.99,1961.96,1543.99,1985.99z"/><path d="M1500.47,2032.39c-25.59,0-46.4-20.82-46.4-46.4c0-25.61,20.82-46.44,46.4-46.44c25.61,0,46.44,20.83,46.44,46.44
			C1546.91,2011.58,1526.08,2032.39,1500.47,2032.39z M1500.47,1945.39c-22.36,0-40.56,18.21-40.56,40.6
			c0,22.37,18.2,40.56,40.56,40.56c22.39,0,40.6-18.2,40.6-40.56C1541.07,1963.6,1522.86,1945.39,1500.47,1945.39z"/><path fill="#f34b85" d="M2240.6,2101.96c-9,16.23-26.14,26.31-44.71,26.31h-432.17c-18.57,0-35.71-10.09-44.71-26.31
				c-9.03-16.2-8.56-36.08,1.23-51.84l216.1-348.01c9.4-15.14,25.65-24.17,43.48-24.17c17.8,0,34.06,9.03,43.45,24.17l216.1,348.01
				C2249.16,2065.88,2249.63,2085.76,2240.6,2101.96z"/><path d="M2195.89,2131.19h-432.17c-19.64,0-37.75-10.66-47.27-27.82c-9.54-17.13-9.04-38.13,1.31-54.8l216.1-348
				c9.92-16,27.1-25.55,45.95-25.55c18.83,0,36.01,9.55,45.93,25.55l216.1,348.01c10.35,16.66,10.85,37.65,1.31,54.79l0,0
				C2233.64,2120.54,2215.53,2131.19,2195.89,2131.19z M1979.82,1680.87c-16.82,0-32.14,8.52-40.99,22.79l-216.1,348.01
				c-9.23,14.86-9.68,33.59-1.16,48.88c8.49,15.31,24.64,24.81,42.16,24.81h432.17c17.51,0,33.66-9.5,42.15-24.81c0,0,0,0,0,0
				c8.52-15.29,8.07-34.01-1.16-48.87l-216.1-348.01C2011.94,1689.39,1996.62,1680.87,1979.82,1680.87z"/><path fill="#fff" d="M2017.36,1863.9l-13.7,110.24c-0.42,3.38-3.3,5.92-6.71,5.92h-34.27c-3.41,0-6.29-2.54-6.71-5.92
				l-13.7-110.24c-0.5-4.03,2.64-7.59,6.71-7.59h61.68C2014.71,1856.31,2017.86,1859.87,2017.36,1863.9z"/><path d="M1996.94,1982.98h-34.27c-4.88,0-9.01-3.65-9.6-8.49l-13.71-110.24c-0.34-2.75,0.51-5.52,2.35-7.6
				c1.84-2.08,4.48-3.27,7.26-3.27h61.68c2.77,0,5.42,1.19,7.25,3.27c1.84,2.08,2.69,4.85,2.35,7.6l-13.7,110.24
				C2005.95,1979.34,2001.82,1982.98,1996.94,1982.98z M1948.97,1859.23c-1.12,0-2.14,0.46-2.88,1.3c-0.74,0.83-1.07,1.9-0.93,3.01
				l13.71,110.24c0.24,1.92,1.88,3.36,3.81,3.36h34.27c1.93,0,3.57-1.45,3.81-3.36l13.7-110.24c0,0,0,0,0,0
				c0.14-1.11-0.19-2.18-0.93-3.01c-0.74-0.84-1.76-1.3-2.88-1.3H1948.97z"/><path fill="#fff" d="M2002.91,2038.15v-22.8c0-3.73-3.03-6.76-6.76-6.76h-32.69c-3.73,0-6.76,3.03-6.76,6.76v22.8
				c0,3.73,3.03,6.76,6.76,6.76h32.69C1999.89,2044.91,2002.91,2041.88,2002.91,2038.15z"/><path d="M1996.16,2047.83h-32.69c-5.34,0-9.68-4.34-9.68-9.68v-22.8c0-5.34,4.34-9.68,9.68-9.68h32.69
				c5.34,0,9.68,4.34,9.68,9.68v22.8C2005.84,2043.48,2001.49,2047.83,1996.16,2047.83z M1963.46,2011.51
				c-2.11,0-3.84,1.72-3.84,3.84v22.8c0,2.11,1.72,3.84,3.84,3.84h32.69c2.11,0,3.84-1.72,3.84-3.84v-22.8
				c0-2.12-1.72-3.84-3.84-3.84H1963.46z"/><path d="M1034.88,2042.24c-1.32,0-2.51-0.9-2.83-2.23c-9.86-40.6,10.52-56.51,11.39-57.17c1.28-0.97,3.11-0.72,4.09,0.57
			c0.97,1.28,0.72,3.11-0.56,4.08c-0.77,0.6-18.13,14.54-9.24,51.14c0.38,1.57-0.58,3.15-2.15,3.53
			C1035.34,2042.21,1035.11,2042.24,1034.88,2042.24z"/><path fill="#737ff6" d="M693.8,1400.03h306.07c46.5,0,85.78,34.48,91.82,80.58v0c4.17,31.86-8.46,63.61-33.39,83.88l-329.95,268.34
				l-113.64-156.28l191.62-152.54l-184.85-87.17L693.8,1400.03z"/><path d="M728.35,1835.74c-0.13,0-0.25-0.01-0.38-0.02c-0.79-0.1-1.51-0.53-1.99-1.18l-113.64-156.27c-0.92-1.26-0.68-3.03,0.54-4
				l187.94-149.62l-180.61-85.16c-1.01-0.48-1.65-1.48-1.67-2.6c-0.02-1.11,0.6-2.14,1.6-2.65l72.33-36.81
				c0.41-0.21,0.86-0.32,1.32-0.32h306.06c47.79,0,88.51,35.73,94.72,83.12c4.34,33.11-8.54,65.46-34.44,86.53L730.2,1835.09
				C729.67,1835.51,729.02,1835.74,728.35,1835.74z M618.72,1677.09l110.18,151.52l327.55-266.39
				c24.32-19.78,36.41-50.15,32.34-81.23c-5.83-44.49-44.06-78.04-88.93-78.04H694.5l-66.39,33.79l179.46,84.63
				c0.91,0.43,1.54,1.3,1.65,2.3c0.12,1-0.29,1.99-1.08,2.62L618.72,1677.09z"/><path d="M675.7,2042.53c-1,0-1.98-0.52-2.52-1.44l-173.17-294.48c-0.82-1.39-0.35-3.18,1.04-4c1.39-0.82,3.18-0.35,4,1.04
			l173.17,294.48c0.82,1.39,0.35,3.18-1.04,4C676.71,2042.4,676.2,2042.53,675.7,2042.53z"/><path fill="#fff" d="M478.9,1760.32l172.61,293.52l24.19-14.23l-173.17-294.48C494.63,1749.87,486.75,1754.94,478.9,1760.32z"/><path d="M651.51,2056.75c-1,0-1.98-0.52-2.52-1.44l-172.6-293.52c-0.78-1.32-0.4-3.02,0.87-3.89c8-5.48,16-10.62,23.78-15.28
				c0.67-0.4,1.46-0.52,2.23-0.33c0.75,0.19,1.4,0.68,1.8,1.35l173.17,294.48c0.39,0.67,0.51,1.46,0.31,2.22
				c-0.19,0.75-0.68,1.39-1.35,1.78l-24.19,14.23C652.52,2056.62,652.01,2056.75,651.51,2056.75z M482.8,1761.19l169.74,288.64
				l19.16-11.26l-170.19-289.41C495.37,1752.9,489.09,1756.94,482.8,1761.19z"/><path fill="#fdb8d4" d="M691.79,1893.2c0,0,35.67-38.41,22.82-55.99c-13.45-18.38-67.01,24.7-67.01,24.7
				c-67.63-66.27-71.72-149.26-71.72-149.26c-24.72,6.67-49.14,17.96-73.34,32.48l173.17,294.48l4.9-2.88
				c13.27-7.8,20.91-22.5,19.68-37.84L691.79,1893.2z"/><path d="M675.7,2042.53c-0.25,0-0.49-0.03-0.73-0.09c-0.75-0.19-1.39-0.68-1.78-1.35l-173.17-294.48
				c-0.81-1.38-0.36-3.16,1.02-3.99c26.11-15.66,50.35-26.39,74.08-32.79c0.85-0.23,1.76-0.06,2.48,0.46
				c0.71,0.52,1.15,1.34,1.2,2.22c0.04,0.81,4.79,81.16,69.03,145.51c8.55-6.6,41.07-30.53,59.27-28.12
				c4.25,0.56,7.57,2.44,9.87,5.58c13.13,17.94-15.74,51.65-22.16,58.75l8.39,104.41c1.31,16.35-6.98,32.28-21.12,40.6l-4.9,2.88
				C676.72,2042.39,676.21,2042.53,675.7,2042.53z M506.52,1746.16l170.22,289.45l2.38-1.4c12.22-7.19,19.39-20.96,18.25-35.09
				l-8.49-105.68c-0.06-0.82,0.22-1.62,0.77-2.22c9.46-10.2,31.97-39.47,22.6-52.28c-1.34-1.83-3.27-2.89-5.92-3.24
				c-15.15-1.99-46.21,19.89-56.9,28.49c-1.15,0.93-2.81,0.85-3.88-0.19c-59.67-58.47-70.52-130.75-72.28-147.58
				C551.88,1722.55,529.98,1732.3,506.52,1746.16z"/><path d="M646.11,1992.21c-0.76,0-1.53-0.3-2.1-0.89c-1.13-1.16-1.1-3.01,0.06-4.13c29.99-29.07,54.04-19.58,55.06-19.17
			c1.49,0.62,2.2,2.33,1.58,3.82c-0.62,1.49-2.32,2.19-3.8,1.59c-0.91-0.37-21.73-8.25-48.76,17.96
			C647.57,1991.94,646.84,1992.21,646.11,1992.21z"/><path d="M693.9,1922.35c-0.05,0-0.09,0-0.14,0l-26.77-1.22c-1.61-0.07-2.86-1.44-2.78-3.05c0.08-1.61,1.44-2.86,3.05-2.78
			l26.77,1.22c1.61,0.07,2.86,1.44,2.78,3.05C696.74,1921.13,695.45,1922.35,693.9,1922.35z"/><path d="M692.8,1909.92c-0.05,0-0.09,0-0.14,0l-18.68-0.85c-1.61-0.07-2.86-1.44-2.78-3.05c0.07-1.61,1.51-2.84,3.05-2.78
			l18.68,0.85c1.61,0.07,2.86,1.44,2.78,3.05C695.64,1908.7,694.35,1909.92,692.8,1909.92z"/><path d="M695.13,1937.71c-0.05,0-0.09,0-0.13,0l-16.39-0.71c-1.61-0.07-2.86-1.43-2.79-3.05c0.07-1.61,1.54-2.83,3.04-2.79
			l16.39,0.71c1.61,0.07,2.86,1.43,2.79,3.05C697.98,1936.48,696.69,1937.71,695.13,1937.71z"/><path d="M527.07,1789.79c-1.15,0-2.24-0.68-2.7-1.81c-0.61-1.49,0.11-3.2,1.6-3.81c39.96-16.35,46.94-71.3,47.01-71.85
			c0.19-1.6,1.68-2.75,3.24-2.56c1.61,0.19,2.75,1.64,2.56,3.24c-0.29,2.4-7.43,58.91-50.6,76.57
			C527.81,1789.72,527.44,1789.79,527.07,1789.79z"/><path fill="#fff" d="M624.22,1689.62l-45.65,42.52c5.41,28.51,21.55,83.25,69.02,129.78c0,0,39.77-31.96,59.38-29.06l13.1-11.05
				L624.22,1689.62z"/><path d="M647.58,1864.83c-0.74,0-1.48-0.28-2.05-0.83c-48.02-47.08-64.37-102.49-69.84-131.32c-0.19-0.99,0.15-2,0.88-2.68
				l45.65-42.52c0.61-0.57,1.46-0.85,2.27-0.77c0.83,0.08,1.59,0.52,2.08,1.19l95.85,132.18c0.9,1.24,0.69,2.96-0.48,3.95
				l-13.1,11.05c-0.64,0.54-1.49,0.79-2.31,0.66c-15.1-2.19-46.34,19.78-57.13,28.45C648.88,1864.62,648.23,1864.83,647.58,1864.83z
				 M581.74,1733.17c5.56,28.19,21.43,80.13,66.07,124.85c8.39-6.47,39.86-29.58,58.23-28.21l10.07-8.5l-92.32-127.31
				L581.74,1733.17z"/><rect width="515.95" height="57.86" x="322.72" y="1605.3" fill="#4bb420"/><path d="M838.67,1666.09H322.72c-1.61,0-2.92-1.31-2.92-2.92v-57.86c0-1.61,1.31-2.92,2.92-2.92h515.95
				c1.61,0,2.92,1.31,2.92,2.92v57.86C841.59,1664.78,840.28,1666.09,838.67,1666.09z M325.64,1660.24h510.11v-52.02H325.64V1660.24
				z"/><path d="M753.16,1608.11h-49.55c-1.61,0-2.92-1.31-2.92-2.92s1.31-2.92,2.92-2.92h49.55c1.61,0,2.92,1.31,2.92,2.92
			S754.77,1608.11,753.16,1608.11z"/><path fill="#fff" d="M1095.08,840.83l-152.94,167.9l-87.34-19.43l-32.92,150.2l143.49,26.09c31.03,5.6,62.54-6.94,81.18-32.37
				l145.82-225.74"/><path d="M979.82,1169.79c-4.97,0-9.98-0.44-14.96-1.34l-143.49-26.09c-0.78-0.14-1.47-0.59-1.91-1.26
				c-0.44-0.66-0.59-1.47-0.42-2.24l32.92-150.2c0.17-0.76,0.63-1.42,1.28-1.84c0.65-0.42,1.46-0.56,2.21-0.39l85.68,19.06
				l151.8-166.64c1.1-1.2,2.94-1.28,4.13-0.19c1.19,1.09,1.28,2.93,0.19,4.13l-152.94,167.9c-0.7,0.78-1.74,1.12-2.8,0.88
				l-84.48-18.8l-31.64,144.38l140.51,25.55c29.69,5.36,60.46-6.88,78.3-31.22l145.72-225.59c0.87-1.35,2.67-1.75,4.04-0.87
				c1.35,0.87,1.74,2.68,0.87,4.04l-145.82,225.74C1032.76,1156.96,1006.73,1169.79,979.82,1169.79z"/><path d="M435.27,1401.9v-166.13l-130.11-97.54l98.5-148.62c12.17-18.55,32.86-29.73,55.05-29.73h277.23
				c3.4,0,6.8,0.31,10.15,0.91l147.15,26.74l-23.02,176.06l-85.24-18.1l55.22,256.39H435.27z"/><path d="M840.2,1404.82H435.27c-1.61,0-2.92-1.31-2.92-2.92v-164.67l-128.94-96.66c-1.24-0.93-1.54-2.66-0.68-3.95L401.23,988
				c12.74-19.43,34.24-31.03,57.48-31.03h277.23c3.57,0,7.16,0.32,10.67,0.96l147.15,26.74c1.53,0.28,2.58,1.71,2.38,3.25
				l-23.02,176.06c-0.11,0.81-0.55,1.53-1.21,2.01c-0.67,0.47-1.5,0.64-2.3,0.47l-80.82-17.16l54.27,251.98
				c0.19,0.86-0.03,1.76-0.59,2.45C841.92,1404.42,841.08,1404.82,840.2,1404.82z M438.19,1398.98h398.39l-54.46-252.85
				c-0.21-0.97,0.09-1.98,0.79-2.68s1.71-1,2.68-0.79l82.14,17.44l22.25-170.17l-144.42-26.25c-3.17-0.58-6.41-0.87-9.63-0.87
				H458.71c-21.27,0-40.94,10.62-52.61,28.4l-96.99,146.33l127.9,95.88c0.73,0.55,1.17,1.42,1.17,2.34V1398.98z"/><path fill="#fff" d="M614.78,1195.04c0,0,39.62-53.65,69.83-43.07c30.22,10.58-22.12,75.02-22.12,75.02s-4.02,46.94-38.12,27.6"/><path d="M639.36,1262.19c-4.99,0-10.48-1.69-16.43-5.06c-1.4-0.79-1.89-2.58-1.1-3.98c0.79-1.4,2.57-1.9,3.98-1.1
				c8.06,4.58,14.84,5.49,20.12,2.71c11.61-6.1,13.63-27.8,13.65-28.02c0.05-0.58,0.27-1.14,0.64-1.59
				c9.96-12.27,34.83-47.61,30.33-63.53c-0.95-3.34-3.21-5.59-6.91-6.89c-27.83-9.76-66.13,41.52-66.52,42.05
				c-0.96,1.29-2.79,1.57-4.08,0.61c-1.3-0.96-1.57-2.79-0.62-4.08c1.67-2.26,41.26-55.24,73.15-44.09
				c5.55,1.94,9.11,5.58,10.6,10.82c5.91,20.88-26.05,62.08-30.87,68.12c-0.54,4.62-3.61,24.91-16.64,31.78
				C645.8,1261.43,642.69,1262.19,639.36,1262.19z"/><path fill="#fff" d="M535.59,916.17c7.57,11.55,22.66,15.32,34.7,8.97v34.21c0,0,26.95,44.53,62,34.32
				c24.43-7.11,24.86-27.68,22.08-41.4c-1.19-5.86-2.99-10.44-3.74-12.24c-0.17-0.43-0.29-0.7-0.35-0.78
				c78.19-38.27,5.28-120.69,5.28-120.69c-62.96-7.08-129.77,20.57-89.94,57.62c-7.28-2.18-15.44-1.28-22.31,3.22
				C531.04,887.42,527.55,903.87,535.59,916.17z"/><path d="M621.61,998.13c-30.86,0-52.79-35.59-53.82-37.28c-0.28-0.46-0.42-0.98-0.42-1.51v-29.77
				c-12.6,4.32-26.69-0.31-34.22-11.8c0,0,0,0,0,0c-8.88-13.6-5.05-31.92,8.56-40.83c4.85-3.17,10.45-4.82,16.13-4.83
				c-9-11.28-7.97-20.63-5.12-26.84c9.92-21.62,56.19-34.91,103.17-29.63c0.72,0.08,1.38,0.42,1.86,0.97
				c1.57,1.77,38.31,43.86,30.57,82.9c-3.41,17.19-14.94,31.01-34.3,41.11c0.97,2.54,2.28,6.44,3.22,11.06
				c4.67,22.99-3.89,38.9-24.12,44.79C629.16,997.62,625.32,998.13,621.61,998.13z M573.21,958.49
				c3.49,5.38,28.04,41.16,58.26,32.36c21.66-6.3,22.85-24.15,20.03-38.01c-1.08-5.34-2.7-9.62-3.57-11.7l-0.22-0.51
				c-0.46-0.7-0.54-1.47-0.31-2.27c0.22-0.81,0.84-1.38,1.59-1.75c19.11-9.35,30.41-22.21,33.58-38.23
				c6.62-33.33-23.41-70.99-28.49-77.06c-43.5-4.61-87.34,7.38-96.06,26.38c-3.72,8.09-0.49,16.95,9.58,26.32
				c0.99,0.92,1.22,2.41,0.55,3.59c-0.68,1.18-2.07,1.73-3.37,1.35c-6.76-2.02-14.01-0.98-19.87,2.86
				c-10.92,7.15-14,21.84-6.87,32.75c6.74,10.28,20.03,13.71,30.89,7.98c0.91-0.48,2-0.45,2.87,0.08s1.41,1.48,1.41,2.5V958.49z"/><path d="M700.71,782.57c0,0,19.45,48.19-45.65,46.08s-82.85,10.57-82.85,10.57s17.33,44.81-12.26,38.47
				c-29.59-6.34-27.05,25.36-27.05,25.36s-44.81-88.35,4.65-86.66c0,0,32.82-43.84,61.02-49.06c28.2-5.22,1.74,28.55,1.74,28.55
				s13.93-35.56,35.51-29.1s-3.13,29.45-3.13,29.45s18.8-34.7,40.73-30.23c21.93,4.47-5.57,29.19-5.57,29.19L700.71,782.57z"/><path d="M532.88,905.96c-1.08,0-2.1-0.6-2.6-1.6c-1.2-2.37-29.27-58.31-14.67-81.2c4.11-6.45,11.01-9.72,20.5-9.73
				c5.64-7.29,35.25-44.05,61.92-48.99c7.74-1.44,12.87-0.22,15.21,3.63c0.38,0.62,0.65,1.28,0.85,1.98
				c6.07-5.37,13.69-8.75,22.57-6.08c5.79,1.73,9.31,4.75,10.5,8.98c7.41-6.73,16.75-11.9,26.85-9.83
				c5.85,1.19,9.38,3.86,10.48,7.92c1.44,5.3-2.07,11.74-6.04,16.93l21.23-8.14c1.48-0.56,3.16,0.15,3.75,1.63
				c0.32,0.8,7.82,19.85-2.43,34.52c-7.74,11.07-23.19,16.32-46.03,15.57c-51.67-1.67-73.1,6.13-79.15,9.01
				c2.47,7.18,8.23,26.93,0.43,36.07c-3.6,4.22-9.29,5.52-16.91,3.89c-7.51-1.61-13.3-0.69-17.21,2.72
				c-7.25,6.33-6.33,19.43-6.32,19.56c0.11,1.39-0.78,2.66-2.13,3.04C533.41,905.93,533.15,905.96,532.88,905.96z M536.13,819.28
				c-7.48,0-12.59,2.3-15.59,7.03c-8.87,13.91,2.04,46.38,10.42,65.68c1.06-4.52,3.18-9.5,7.3-13.11c5.37-4.71,12.87-6.07,22.3-4.05
				c5.37,1.15,9.14,0.48,11.24-1.97c5.8-6.79,0.3-25.83-2.31-32.59c-0.48-1.24-0.06-2.65,1.03-3.43
				c0.75-0.54,19.33-13.23,84.64-11.11c20.68,0.65,34.52-3.73,41.06-13.08c6.41-9.17,4.18-20.99,2.69-26.25l-30.01,11.51
				c-1.32,0.5-2.8,0-3.54-1.2s-0.51-2.76,0.54-3.7c6.18-5.56,14.27-15.57,12.95-20.42c-0.48-1.76-2.5-3.02-6.01-3.73
				c-9.95-2.02-19.47,5.38-26.43,13.18c-2.96,7.98-10.59,15.27-11.73,16.33c-1.05,0.98-2.65,1.05-3.78,0.17
				c-1.13-0.88-1.46-2.44-0.78-3.7c0.37-0.68,4.52-8.23,11.17-15.85c0.45-1.51,0.6-2.94,0.31-4.21c-0.54-2.3-2.76-4.05-6.61-5.2
				c-8.77-2.63-16.3,3.12-21.84,10.01c-2.71,7.78-8.8,15.88-10.54,18.09c-0.9,1.14-2.49,1.45-3.75,0.74
				c-1.26-0.72-1.8-2.25-1.27-3.6c0.3-0.76,3.97-9.94,10.45-18.23c0.74-2.35,0.91-4.3,0.21-5.47c-0.9-1.49-4.23-1.82-9.15-0.91
				c-26.75,4.95-58.9,47.51-59.22,47.94c-0.57,0.77-1.51,1.21-2.44,1.17C537,819.29,536.55,819.28,536.13,819.28z"/><path d="M635.98,948.04c-1.21,0-2.34-0.76-2.76-1.97c-0.52-1.52,0.28-3.19,1.81-3.72c5.02-1.74,9.73-3.68,13.98-5.76
			c1.46-0.72,3.2-0.11,3.91,1.34c0.71,1.45,0.11,3.2-1.34,3.91c-4.47,2.19-9.4,4.22-14.64,6.04
			C636.62,947.99,636.3,948.04,635.98,948.04z"/><path fill="#fff" d="M580.12,887.08c-8.04-12.3-24.5-15.76-36.81-7.72c-12.3,8.04-15.76,24.5-7.72,36.81
				c8.02,12.28,24.5,15.76,36.81,7.72"/><path d="M557.9,931.13c-9.64,0-19.1-4.71-24.76-13.37c-4.31-6.6-5.8-14.49-4.18-22.2c1.62-7.71,6.15-14.34,12.75-18.65
				c13.62-8.89,31.95-5.06,40.85,8.57c0.88,1.35,0.5,3.16-0.85,4.04c-1.36,0.88-3.16,0.5-4.04-0.85
				c-7.14-10.93-21.84-14.01-32.76-6.88c-5.3,3.46-8.93,8.77-10.23,14.96c-1.3,6.18-0.11,12.51,3.35,17.81
				c7.13,10.92,21.82,14.02,32.76,6.88c1.36-0.88,3.16-0.5,4.04,0.85c0.88,1.35,0.5,3.16-0.85,4.04
				C569.02,929.58,563.43,931.13,557.9,931.13z"/><path fill="#fff" d="M567.31,895.44c-3.41-5.23-10.41-6.7-15.64-3.28c-5.23,3.41-6.7,10.41-3.28,15.64
				c3.41,5.22,10.41,6.7,15.64,3.28"/><path d="M557.88,915.84c-4.65,0-9.2-2.27-11.93-6.44c-4.28-6.56-2.43-15.39,4.13-19.68c6.57-4.29,15.4-2.43,19.68,4.13
				c0.88,1.35,0.5,3.16-0.85,4.04c-1.36,0.88-3.16,0.5-4.04-0.85c-2.53-3.87-7.72-4.96-11.6-2.43c-3.86,2.53-4.96,7.73-2.43,11.6
				c2.53,3.87,7.73,4.96,11.6,2.43c1.36-0.88,3.16-0.5,4.04,0.85c0.88,1.35,0.5,3.16-0.85,4.04
				C563.24,915.09,560.54,915.84,557.88,915.84z"/><path d="M654.19,900.17c-0.13,0-0.25,0-0.37,0l-8.12-0.03c-1.61-0.01-2.91-1.32-2.91-2.93c0-1.61,1.31-2.91,2.92-2.91
			c0,0,0.01,0,0.01,0l8.12,0.03c1.09,0.01,2.88,0.01,3.52-0.61c0.32-0.31,0.45-1,0.3-1.61c-0.19-0.78-0.77-1.59-1.64-2.29
			c-1.34-1.08-3.1-1.77-4.97-2.51c-1.31-0.51-2.62-1.03-3.86-1.68c-8.17-4.27-12.72-14.24-10.59-23.21
			c0.37-1.57,1.95-2.55,3.51-2.17c1.57,0.37,2.54,1.95,2.17,3.52c-1.5,6.34,1.84,13.67,7.62,16.68c1.05,0.55,2.17,0.98,3.29,1.42
			c2.2,0.86,4.48,1.76,6.52,3.4c1.88,1.52,3.14,3.4,3.64,5.43c0.66,2.67-0.08,5.43-1.92,7.21
			C659.2,900.06,656.17,900.17,654.19,900.17z"/><path d="M599.11,867.36c-0.63,0-1.27-0.2-1.8-0.63c-1.27-1-1.49-2.83-0.49-4.1c2.84-3.61,6.37-8.1,11.27-10.84
			c5.8-3.25,12.46-3.14,16.98,0.23c1.29,0.96,1.56,2.8,0.59,4.09c-0.97,1.29-2.8,1.56-4.09,0.59c-3.04-2.27-7.53-1.55-10.63,0.19
			c-3.6,2.01-6.33,5.29-9.53,9.35C600.83,866.97,599.98,867.36,599.11,867.36z"/><path d="M645.43,856.25c-0.63,0-1.27-0.2-1.8-0.62c-1.27-1-1.49-2.83-0.49-4.1c2.83-3.61,6.36-8.09,11.27-10.84
			c5.8-3.24,12.46-3.14,16.98,0.23c1.29,0.96,1.56,2.8,0.59,4.09c-0.97,1.29-2.8,1.56-4.09,0.59c-3.04-2.27-7.53-1.54-10.63,0.19
			c-3.61,2.02-6.34,5.29-9.53,9.35C647.16,855.87,646.3,856.25,645.43,856.25z"/><path d="M631.79,920.15c-0.56,0-1.12-0.16-1.62-0.49c-1.34-0.9-1.7-2.71-0.8-4.05c2.38-3.56,5.86-5.87,10.05-6.69
			c5.05-0.98,10.53,0.33,15.5,3.68c1.34,0.9,1.69,2.72,0.78,4.06c-0.9,1.34-2.72,1.69-4.05,0.79c-3.67-2.48-7.61-3.48-11.1-2.79
			c-2.63,0.51-4.81,1.97-6.31,4.21C633.65,919.7,632.73,920.15,631.79,920.15z"/><path d="M640.65,943.41c0,0,9.54,2.7,13.72,8.85c-1.19-5.86-2.99-10.44-3.74-12.24L640.65,943.41z"/><path d="M654.37,955.18c-0.94,0-1.86-0.46-2.42-1.28c-3.51-5.18-12.02-7.66-12.11-7.68c-1.23-0.35-2.09-1.46-2.12-2.74
				c-0.03-1.28,0.77-2.43,1.98-2.84l9.98-3.39c1.47-0.5,3.04,0.22,3.63,1.64c0.95,2.28,2.73,6.96,3.91,12.79
				c0.27,1.36-0.45,2.73-1.73,3.27C655.13,955.11,654.75,955.18,654.37,955.18z M648.78,943.73c0.07,0.04,0.13,0.07,0.2,0.11
				c-0.02-0.06-0.04-0.11-0.06-0.16L648.78,943.73z"/><path fill="#fff" d="M1093.67,838.77c0,0,75.41-128.47,106.73-119.07c31.35,9.36-18.96,73.08-18.96,73.08l58.25,77.33
				c0,0-7.5,44.53-57.43,50.76"/><path d="M1182.26,923.78c-1.45,0-2.71-1.08-2.89-2.56c-0.2-1.6,0.94-3.06,2.54-3.26c42.74-5.33,53.03-40.26,54.65-47.16
				l-57.45-76.27c-0.8-1.06-0.78-2.53,0.04-3.57c9.43-11.94,32.82-46.3,27.97-61.65c-1.07-3.39-3.54-5.62-7.56-6.82
				c-23.96-7.22-82.72,82.58-103.37,117.75c-0.82,1.39-2.61,1.85-4,1.04c-1.39-0.82-1.86-2.61-1.04-4
				c7.84-13.35,77.44-130.19,110.08-120.39c5.92,1.77,9.77,5.35,11.45,10.65c6.09,19.26-20.96,56.54-27.57,65.24l56.91,75.55
				c0.48,0.64,0.68,1.45,0.55,2.24c-0.08,0.47-8.45,46.75-59.94,53.17C1182.5,923.77,1182.38,923.78,1182.26,923.78z"/><path fill="#fff" d="M1092.88,847.16c0,0-15.81-67.78,12.98-78.67c29.94-11.32,40.45,69.76,40.45,69.76s32.27,36.3-6.39,48.1"/><path d="M1139.92,889.28c-1.25,0-2.41-0.81-2.8-2.07c-0.47-1.54,0.4-3.17,1.94-3.65c9.18-2.8,14.69-7.24,16.36-13.19
				c3.68-13.07-11.16-30.01-11.3-30.18c-0.39-0.44-0.64-0.98-0.72-1.56c-0.07-0.55-7.4-55.45-25.88-66.53
				c-3.38-2.03-6.87-2.31-10.64-0.88c-26.08,9.86-11.32,74.62-11.17,75.27c0.37,1.57-0.61,3.14-2.18,3.51
				c-1.54,0.36-3.14-0.61-3.51-2.18c-0.67-2.87-16.04-70.4,14.79-82.06c5.49-2.07,10.78-1.62,15.72,1.34
				c19.73,11.83,27.49,62.35,28.55,69.92c3.04,3.63,16.07,20.32,11.97,34.93c-2.25,8-9.07,13.79-20.28,17.21
				C1140.49,889.24,1140.2,889.28,1139.92,889.28z"/><path fill="#fff" d="M1216.83,809.63c-17.82,23.86-31.73,37.44-44.02,33.76c-25.48-7.63,8.97-50.96,8.97-50.96
				C1195.32,772.73,1227.56,793.83,1216.83,809.63z"/><path d="M1176.94,846.92c-1.66,0-3.31-0.24-4.96-0.73c-5.58-1.67-9.18-4.97-10.7-9.81c-5-15.93,15.82-42.76,18.21-45.77
				c8.03-11.69,22.38-11,32.37-4.18c9.75,6.66,12.79,16.88,7.38,24.84c-0.02,0.04-0.05,0.07-0.08,0.11
				C1203.29,832.64,1189.79,846.92,1176.94,846.92z M1196.71,787.36c-4.65,0-9.22,1.92-12.52,6.73
				c-6.08,7.66-20.79,29.54-17.33,40.55c0.91,2.91,3.14,4.86,6.8,5.96c9.39,2.8,21.59-6.96,40.8-32.66c4.02-6-0.05-12.69-5.88-16.68
				C1205.1,788.89,1200.87,787.36,1196.71,787.36z M1216.83,809.63h0.04H1216.83z"/><path fill="#fff" d="M1237.83,835.63c-19.79,18.46-34.42,28.37-44.81,23.09c-21.56-10.94,16.24-44.12,16.24-44.12
				C1225.43,797.93,1250.99,824.41,1237.83,835.63z"/><path d="M1199.08,863.07c-2.59,0-5.05-0.56-7.38-1.74c-5.99-3.04-7.72-7.49-8.13-10.7c-1.92-15.19,21.13-35.91,23.76-38.22
				c5.25-5.43,12.26-7.37,19.51-5.29c8.27,2.36,15.49,9.69,17.18,17.43c1.14,5.22-0.37,9.93-4.24,13.26
				C1223.6,852.91,1210.14,863.07,1199.08,863.07z M1221.25,812.16c-3.04,0-6.56,1.05-9.89,4.48c-6.68,5.88-23.29,22.98-21.99,33.27
				c0.33,2.65,1.96,4.69,4.97,6.22c7.81,3.97,20.24-2.8,41.49-22.62c0.03-0.03,0.06-0.06,0.1-0.09c2.26-1.93,3.06-4.49,2.38-7.62
				c-1.23-5.67-6.85-11.28-13.07-13.06C1224.08,812.4,1222.72,812.16,1221.25,812.16z"/><path fill="#fff" d="M1247.16,867.12c-22.58,9.35-38.09,13.1-45.22,5.35c-14.77-16.08,27.7-32.19,27.7-32.19
				C1249.25,831.35,1261.53,860.95,1247.16,867.12z"/><path d="M1213.3,879.58c-5.67,0-10.22-1.54-13.51-5.12c-4.19-4.56-4.24-8.98-3.56-11.88c3.22-13.6,29.4-23.89,32.38-25.02
				c6.45-2.96,13.15-2.42,18.68,1.58c6.06,4.39,9.74,12.44,8.95,19.59c-0.58,5.19-3.39,9.13-7.92,11.08
				c-0.01,0.01-0.02,0.01-0.03,0.02C1234.19,875.66,1222.33,879.58,1213.3,879.58z M1236.84,841.54c-1.77,0-3.77,0.4-5.98,1.41
				c-7.45,2.84-26.81,11.98-28.94,20.97c-0.34,1.44-0.49,3.68,2.17,6.58c5.28,5.73,17.82,3.92,41.93-6.07
				c3.21-1.39,4.17-4.22,4.4-6.35c0.56-5.07-2.2-11.05-6.57-14.21C1242.2,842.67,1239.84,841.54,1236.84,841.54z M1247.16,867.12
				h0.04H1247.16z"/><line x1="446.58" x2="491.88" y1="1175.26" y2="1096.97" fill="#fff"/><path fill="#fff" d="M446.57,1178.18c-0.49,0-1-0.13-1.46-0.39c-1.4-0.81-1.87-2.59-1.06-3.99l45.3-78.29
			c0.81-1.39,2.6-1.88,3.99-1.06c1.4,0.81,1.87,2.59,1.06,3.99l-45.3,78.29C448.56,1177.66,447.58,1178.18,446.57,1178.18z"/><path fill="#fff" d="M916.99,1068.96l-91.47,277.21c-1.8,5.44-6.88,9.12-12.61,9.12H631.54c-7.46,0-12.74-7.3-10.4-14.39
				l91.47-277.21c1.8-5.44,6.88-9.12,12.61-9.12h181.36C914.05,1054.57,919.33,1061.87,916.99,1068.96z"/><path d="M812.91,1358.21H631.55c-4.51,0-8.61-2.09-11.25-5.75c-2.64-3.65-3.35-8.2-1.93-12.48l91.47-277.21
				c2.2-6.66,8.38-11.13,15.39-11.13h181.36c4.51,0,8.61,2.09,11.25,5.75c2.64,3.65,3.34,8.2,1.93,12.48l-91.47,277.21
				C826.1,1353.74,819.92,1358.21,812.91,1358.21z M725.23,1057.49c-4.48,0-8.44,2.86-9.84,7.12l-91.47,277.21
				c-0.82,2.48-0.41,5.11,1.12,7.22c1.53,2.11,3.91,3.33,6.52,3.33h181.36c4.48,0,8.44-2.86,9.84-7.11l91.47-277.21l0,0
				c0.82-2.48,0.41-5.11-1.12-7.22c-1.53-2.11-3.91-3.33-6.52-3.33H725.23z"/><path fill="#fff" d="M298.66,1289.66l317.06,22.5c39.16,16.2,78.62,9.91,81.37,9.43c19.33-3.36,24.42-17.83,11.44-27.85
				c1.47,0.08,2.97,0.19,4.5,0.29c14.32,1.51,17.54-24.54,3.9-32.1c0.14-0.03,0.26-0.02,0.4-0.05c86.67,8.73,69.38-49.47-5.67-36.15
				c18.13-2.3,69.94-11.03,58.14-34.52c-14.2-28.36-155.03,3.84-155.03,3.84l-175.19-8.5l6.99-11.27l-141.42-37.03l-45.43,77.54
				C241.3,1247.22,262.31,1287.08,298.66,1289.66z"/><path d="M674.64,1326.09c-15.77,0-37.71-2.1-59.59-11.06l-316.59-22.46c-18.09-1.28-33.93-11.63-42.39-27.67
				c-8.45-16.04-8.03-34.96,1.14-50.61l45.43-77.54c0.67-1.13,2-1.68,3.26-1.35l141.42,37.03c0.89,0.24,1.63,0.88,1.97,1.74
				c0.35,0.86,0.26,1.84-0.23,2.62l-4.37,7.06l169.83,8.25c16.4-3.73,143.23-31.52,157.9-2.21c2.65,5.27,2.73,10.31,0.25,14.97
				c-4.07,7.65-14.76,13.04-26.8,16.81c14.86,2.08,25.05,7.72,29.63,14.31c3.46,4.98,3.8,10.62,0.95,15.47
				c-6.14,10.43-25.23,15.49-51.67,13.95c3.96,6.03,4.7,14.18,2.68,20.6c-2,6.35-6.39,10.33-11.81,10.94
				c2.7,3.92,3.63,8.25,2.58,12.49c-1.86,7.49-9.57,13.12-20.63,15.04C696.81,1324.6,687.91,1326.09,674.64,1326.09z
				 M306.56,1141.62l-44.31,75.63c-8.14,13.89-8.52,30.69-1.01,44.93c7.51,14.24,21.57,23.43,37.63,24.56l317.06,22.5
				c0.32,0.02,0.62,0.1,0.91,0.21c38.89,16.09,78.1,9.54,79.75,9.26c8.71-1.52,14.68-5.51,15.96-10.69c0.99-4-1.13-8.36-5.8-11.97
				c-1.02-0.78-1.4-2.14-0.95-3.34c0.45-1.2,1.67-1.97,2.91-1.89l4.52,0.29c5.59,0.61,7.94-4.61,8.65-6.88
				c2.1-6.64,0.26-16.08-6.36-19.76c-1.06-0.59-1.65-1.78-1.47-2.98c0.18-1.2,1.08-2.17,2.27-2.43c0.11-0.03,0.44-0.07,0.56-0.08
				c0.28-0.06,0.46-0.05,0.75-0.02c33.14,3.34,49.51-3.22,53.77-10.48c2.15-3.64,0.79-7-0.71-9.17
				c-5.68-8.18-23.37-14.86-49.76-11.98c-3.18,0.51-6.18,0.94-8.9,1.28c-1.55,0.18-3.02-0.89-3.25-2.46
				c-0.24-1.57,0.81-3.04,2.38-3.31c3.12-0.55,6.14-0.99,9.07-1.31c25.5-4.14,42.91-11.22,47.29-19.43c1.56-2.93,1.46-6.07-0.32-9.6
				c-10.81-21.58-113.22-3.44-151.77,5.37c-0.25,0.06-0.52,0.08-0.79,0.07l-175.19-8.5c-1.03-0.05-1.96-0.64-2.45-1.56
				c-0.48-0.91-0.44-2.02,0.1-2.9l4.9-7.91L306.56,1141.62z"/><polygon fill="#fff" points="850.23 1083.44 826.35 1154.59 866.78 1154.59 889.24 1081"/><path d="M866.78,1157.51h-40.44c-0.94,0-1.82-0.45-2.37-1.22c-0.55-0.76-0.7-1.74-0.4-2.64l23.88-71.15
				c0.38-1.13,1.4-1.91,2.59-1.99l39.02-2.45c0.95-0.05,1.88,0.35,2.48,1.1c0.59,0.75,0.78,1.75,0.5,2.66l-22.46,73.59
				C869.2,1156.67,868.07,1157.51,866.78,1157.51z M830.41,1151.67h34.21l20.6-67.49l-32.85,2.06L830.41,1151.67z"/><path d="M871.46,1102.21c-1.32,3.92-5.6,7.07-9.55,7.07c-3.95,0-6.12-3.15-4.8-7.07c1.31-3.89,5.6-7.07,9.55-7.07
			C870.61,1095.14,872.76,1098.32,871.46,1102.21z"/><path d="M862.79,1132.45c-1.32,3.92-5.6,7.07-9.55,7.07c-3.95,0-6.12-3.15-4.8-7.07c1.31-3.89,5.6-7.07,9.55-7.07
			C861.94,1125.38,864.09,1128.55,862.79,1132.45z"/><path d="M614.41,879.3c-1.12,0-2.19-0.65-2.67-1.74c-0.65-1.48,0.02-3.2,1.5-3.85l5.23-2.31c1.18-0.52,2.3-1.02,3.07-1.7
			c0.52-0.46,0.86-1.05,0.83-1.45c-0.13-1.61,1.08-3.01,2.69-3.14c1.62-0.15,3.01,1.08,3.14,2.69c0.17,2.24-0.87,4.59-2.79,6.28
			c-1.45,1.28-3.11,2.01-4.58,2.66l-5.24,2.31C615.2,879.22,614.8,879.3,614.41,879.3z"/><path d="M657.54,866.55c-1.12,0-2.19-0.65-2.67-1.74c-0.65-1.48,0.02-3.2,1.49-3.85l5.24-2.31c1.13-0.5,2.29-1.01,3.07-1.7
			c0.52-0.46,0.86-1.05,0.83-1.45c-0.13-1.61,1.08-3.01,2.69-3.14c1.63-0.17,3.01,1.08,3.14,2.69c0.17,2.27-0.84,4.56-2.79,6.28
			c-1.46,1.29-3.19,2.05-4.58,2.66l-5.23,2.31C658.33,866.47,657.93,866.55,657.54,866.55z"/><path d="M1093.26,2042.24H751.63c-1.61,0-2.92-1.31-2.92-2.92s1.31-2.92,2.92-2.92h341.62c1.61,0,2.92,1.31,2.92,2.92
			S1094.87,2042.24,1093.26,2042.24z"/><path fill="#fdb8d4" d="M1093.26,2033.63c0-15.39-8.8-29.43-22.65-36.15l-95.4-46.26c0,0-15.03-50.22-36.7-48.05
				c-22.66,2.27-12.68,70.28-12.68,70.28c-91.4,24.7-165.02-13.83-165.02-13.83c-6.78,24.69-9.43,51.47-9.18,79.69h341.62V2033.63z"/><path d="M1093.26,2042.24H751.64c-1.61,0-2.91-1.29-2.92-2.9c-0.26-30.45,2.78-56.78,9.28-80.49c0.24-0.85,0.84-1.55,1.65-1.9
				c0.8-0.35,1.74-0.32,2.52,0.09c0.72,0.38,72.38,37.01,160.42,14.26c-1.35-10.71-5.52-50.83,5.81-65.35
				c2.64-3.38,5.94-5.29,9.81-5.68c22.16-2.27,36.54,39.75,39.41,48.88l94.25,45.7c14.76,7.16,24.29,22.38,24.29,38.78v5.68
				C1096.18,2040.93,1094.87,2042.24,1093.26,2042.24z M754.54,2036.39h335.79v-2.76c0-14.18-8.24-27.33-21-33.52l-95.4-46.26
				c-0.74-0.36-1.29-1.01-1.53-1.79c-3.99-13.33-17.96-47.5-33.61-45.98c-2.26,0.23-4.15,1.36-5.79,3.46
				c-9.39,12.03-6.28,49.91-4.29,63.5c0.21,1.46-0.7,2.86-2.13,3.24c-80.64,21.8-148.45-5.49-163.86-12.51
				C757.19,1985.32,754.5,2009.15,754.54,2036.39z"/><path fill="#fff" d="M751.64,2039.32c0.08,9.21,0.46,18.57,1.11,28.07h340.51v-28.07H751.64z"/><path d="M1093.26,2070.3H752.75c-1.54,0-2.81-1.19-2.91-2.72c-0.67-9.66-1.04-19.16-1.12-28.24c-0.01-0.78,0.3-1.53,0.85-2.08
				c0.55-0.55,1.29-0.87,2.07-0.87h341.62c1.61,0,2.92,1.31,2.92,2.92v28.06C1096.18,2068.99,1094.87,2070.3,1093.26,2070.3z
				 M755.49,2064.46h334.85v-22.22H754.59C754.71,2049.44,755.01,2056.89,755.49,2064.46z"/><line x1="982.84" x2="972.93" y1="1954.93" y2="1970.63" fill="#fdb8d4"/><path d="M972.93,1973.55c-0.53,0-1.07-0.14-1.56-0.45c-1.36-0.86-1.77-2.66-0.91-4.03l9.9-15.71c0.86-1.36,2.66-1.78,4.03-0.91
				c1.36,0.86,1.77,2.66,0.91,4.03l-9.9,15.71C974.85,1973.07,973.9,1973.55,972.93,1973.55z"/><path d="M984.26,1988.08c-0.54,0-1.1-0.15-1.59-0.47c-1.35-0.88-1.73-2.69-0.86-4.04l14.62-22.45c0.88-1.35,2.69-1.74,4.04-0.85
			c1.35,0.88,1.73,2.69,0.86,4.04l-14.62,22.45C986.15,1987.62,985.22,1988.08,984.26,1988.08z"/><path d="M1000.04,1991.97c-0.54,0-1.1-0.15-1.59-0.47c-1.35-0.88-1.74-2.69-0.86-4.04l12.71-19.61c0.88-1.35,2.69-1.74,4.04-0.86
			s1.74,2.69,0.86,4.04l-12.71,19.61C1001.94,1991.5,1001,1991.97,1000.04,1991.97z"/><g><path fill="#fff" d="M772.77,1935.27l6.21,31.92c27.32,9.79,82.68,23.62,146.85,6.29c0,0-7.39-50.48,5.05-65.92l-2.96-17.35
				L772.77,1935.27z"/><path d="M863.28,1984.65c-36.95,0-67.2-8.23-85.29-14.72c-0.97-0.35-1.68-1.18-1.88-2.19l-6.21-31.92
				c-0.29-1.48,0.6-2.94,2.05-3.36l155.15-45.07c0.8-0.23,1.66-0.11,2.37,0.33c0.7,0.44,1.19,1.16,1.33,1.99l2.96,17.36
				c0.14,0.83-0.08,1.67-0.6,2.32c-9.54,11.84-6.44,49.97-4.43,63.67c0.21,1.46-0.7,2.86-2.13,3.24
				C904.16,1982.35,882.78,1984.65,863.28,1984.65z M781.53,1964.99c27.13,9.5,79.92,22.12,141.07,6.32
				c-1.32-10.51-5.34-49.3,5.2-64.5l-2.2-12.9l-149.44,43.41L781.53,1964.99z"/></g><g><path fill="#737ff6" d="M435.28,1401.9v118.98c0,46.59,37.77,84.36,84.36,84.36h192.5l41.48,335.6l186.84-54.27l-35.81-366.53
				c-6.55-67.02-62.89-118.13-130.23-118.13H435.28z"/><path d="M753.62,1943.75c-0.57,0-1.13-0.16-1.61-0.48c-0.71-0.47-1.19-1.23-1.29-2.08l-41.17-333.04H519.64
				c-48.13,0-87.28-39.15-87.28-87.28V1401.9c0-1.61,1.31-2.92,2.92-2.92h339.14c69.18,0,126.41,51.92,133.14,120.77l35.81,366.53
				c0.14,1.4-0.74,2.7-2.09,3.09l-186.84,54.27C754.17,1943.71,753.9,1943.75,753.62,1943.75z M438.2,1404.82v116.06
				c0,44.9,36.53,81.43,81.44,81.43h192.5c1.48,0,2.72,1.1,2.9,2.56l41.07,332.19l181.21-52.63l-35.57-364.12
				c-6.43-65.84-61.17-115.49-127.33-115.49H438.2z"/></g><g><line x1="895.09" x2="748.24" y1="1860.89" y2="1897.32" fill="#fff"/><path d="M748.24,1900.24c-1.31,0-2.5-0.89-2.83-2.22c-0.39-1.57,0.56-3.15,2.13-3.54l146.85-36.43c1.54-0.38,3.15,0.56,3.54,2.13
				c0.39,1.57-0.56,3.15-2.13,3.54l-146.85,36.43C748.71,1900.21,748.48,1900.24,748.24,1900.24z"/></g><g><path d="M800.06,2042.24c-0.14,0-0.28-0.01-0.42-0.03c-1.59-0.23-2.7-1.71-2.47-3.31c6.16-42.73-37.67-76.61-38.11-76.94
			c-1.28-0.98-1.53-2.81-0.56-4.09c0.97-1.28,2.8-1.53,4.09-0.56c1.92,1.46,47.02,36.27,40.36,82.43
			C802.73,2041.19,801.49,2042.24,800.06,2042.24z"/></g><g><path fill="#fff" d="M969.34,517.2c2.79,42-11.07,80.75-35.6,110.29c-28.65,34.44-71.79,56.35-120.12,56.35
				c-23.58,0-45.94-5.22-66-14.57l-39.49,23.38c-2.53,1.5-5.69-0.54-5.37-3.46l5.09-46.64c-5.11-4.69-9.91-9.73-14.34-15.06
				c-22.44-27.02-35.99-61.76-35.99-99.64c0-89.83,75.89-161.95,167.05-155.73C901.77,377.37,964.21,439.98,969.34,517.2z"/><path d="M706.31,696.07c-1.22,0-2.44-0.35-3.51-1.04c-2.08-1.34-3.21-3.7-2.94-6.17l4.93-45.18c-4.84-4.53-9.39-9.35-13.53-14.34
				c-23.64-28.47-36.66-64.52-36.66-101.51c0-43.89,18.41-86.25,50.5-116.23c32.54-30.39,75.06-45.47,119.67-42.41
				c78.84,5.37,142.25,68.92,147.49,147.81l0,0c2.72,41.01-10.16,80.91-36.27,112.35c-30.35,36.48-74.95,57.41-122.36,57.41
				c-22.96,0-45.1-4.78-65.83-14.2l-38.18,22.6C708.59,695.77,707.45,696.07,706.31,696.07z M813.5,374.65
				c-39,0-75.73,14.42-104.42,41.23c-30.91,28.88-48.64,69.69-48.64,111.96c0,35.63,12.54,70.36,35.32,97.78
				c4.28,5.16,9.02,10.14,14.07,14.78c0.68,0.63,1.03,1.54,0.92,2.47l-5.09,46.64c-0.03,0.27,0.07,0.48,0.3,0.62
				c0.22,0.14,0.45,0.15,0.68,0.01l39.49-23.38c0.83-0.49,1.85-0.54,2.72-0.13c20.36,9.49,42.15,14.3,64.77,14.3
				c45.67,0,88.64-20.15,117.87-55.3c25.14-30.28,37.55-68.72,34.93-108.22l0,0c-5.05-75.99-66.12-137.19-142.06-142.37
				C820.73,374.77,817.1,374.65,813.5,374.65z"/></g><g><path fill="#fda500" d="M932.77,527.82c0,28.93-10.32,55.46-27.45,76.07c-21.88,26.31-54.81,43.04-91.69,43.04
				c-36.88,0-69.85-16.73-91.72-43.04c-17.13-20.61-27.45-47.14-27.45-76.07c0-65.81,53.36-119.18,119.18-119.18
				S932.77,462.01,932.77,527.82z"/><path d="M813.63,649.86c-36.42,0-70.67-16.07-93.97-44.1c-18.14-21.82-28.13-49.5-28.13-77.94c0-67.32,54.77-122.1,122.1-122.1
				c67.31,0,122.07,54.77,122.07,122.1c0,28.44-9.99,56.12-28.12,77.94C884.27,633.79,850.03,649.86,813.63,649.86z M813.63,411.57
				c-64.1,0-116.25,52.15-116.25,116.25c0,27.08,9.51,53.43,26.78,74.2c22.18,26.69,54.79,41.99,89.47,41.99
				c34.66,0,67.26-15.3,89.45-41.99c17.27-20.77,26.78-47.13,26.78-74.2C929.85,463.72,877.71,411.57,813.63,411.57z"/></g><g><path fill="#fff" d="M847.54,574.35c-3.57-15.46-17.38-26.99-33.92-26.99s-30.36,11.54-33.93,26.99H847.54z"/><path d="M847.54,577.27h-67.84c-0.89,0-1.73-0.41-2.29-1.1c-0.56-0.7-0.76-1.61-0.56-2.47c3.97-17.23,19.09-29.26,36.77-29.26
				c17.67,0,32.79,12.03,36.76,29.26c0.2,0.87,0,1.78-0.56,2.47C849.27,576.87,848.43,577.27,847.54,577.27z M783.58,571.43h60.06
				c-4.48-12.62-16.35-21.15-30.03-21.15C799.93,550.28,788.06,558.81,783.58,571.43z"/></g><g><path fill="#fff" d="M782.16,499.98c0,9.54-7.73,17.3-17.3,17.3c-9.54,0-17.31-7.76-17.31-17.3c0-9.58,7.76-17.3,17.31-17.3
				C774.43,482.68,782.16,490.41,782.16,499.98z"/><path d="M764.86,520.21c-11.15,0-20.23-9.07-20.23-20.23c0-11.15,9.08-20.23,20.23-20.23s20.23,9.07,20.23,20.23
				C785.08,511.14,776.01,520.21,764.86,520.21z M764.86,485.6c-7.93,0-14.38,6.45-14.38,14.38c0,7.93,6.45,14.38,14.38,14.38
				s14.38-6.45,14.38-14.38C779.24,492.05,772.79,485.6,764.86,485.6z"/></g><g><path fill="#fff" d="M876.79,499.98c0,9.54-7.73,17.3-17.3,17.3c-9.54,0-17.31-7.76-17.31-17.3c0-9.58,7.76-17.3,17.31-17.3
				C869.07,482.68,876.79,490.41,876.79,499.98z"/><path d="M859.49,520.21c-11.15,0-20.23-9.07-20.23-20.23c0-11.15,9.08-20.23,20.23-20.23c11.15,0,20.22,9.07,20.22,20.23
				C879.71,511.14,870.64,520.21,859.49,520.21z M859.49,485.6c-7.93,0-14.38,6.45-14.38,14.38c0,7.93,6.45,14.38,14.38,14.38
				c7.93,0,14.38-6.45,14.38-14.38C873.87,492.05,867.42,485.6,859.49,485.6z"/></g><g><path d="M776.46,1608.11h-67.3c-1.61,0-2.92-1.31-2.92-2.92s1.31-2.92,2.92-2.92h67.3c1.61,0,2.92,1.31,2.92,2.92
			S778.07,1608.11,776.46,1608.11z"/></g><g><path d="M864.08,1822.67c-1.38,0-2.61-0.98-2.87-2.39l-52.48-282.6c-5.24-28.21-29.87-48.69-58.57-48.69H537.07
			c-1.61,0-2.92-1.31-2.92-2.92c0-1.61,1.31-2.92,2.92-2.92h213.09c31.51,0,58.56,22.49,64.31,53.47l52.48,282.61
			c0.3,1.59-0.75,3.11-2.34,3.4C864.44,1822.65,864.26,1822.67,864.08,1822.67z"/></g></svg>